G04 EAGLE Gerber RS-274X export*
G75*
%MOMM*%
%FSLAX34Y34*%
%LPD*%
%INSoldermask Top*%
%IPNEG*%
%AMOC8*
5,1,8,0,0,1.08239X$1,22.5*%
G01*
%ADD10R,3.203200X2.703200*%
%ADD11R,2.703200X3.203200*%
%ADD12P,1.951982X8X112.500000*%
%ADD13C,1.879600*%
%ADD14C,3.203200*%
%ADD15P,2.556822X8X22.500000*%
%ADD16C,1.879600*%
%ADD17C,3.505200*%
%ADD18P,1.649562X8X112.500000*%
%ADD19P,1.649562X8X22.500000*%
%ADD20P,1.649562X8X292.500000*%


D10*
X187400Y76200D03*
X117400Y76200D03*
X206300Y419100D03*
X276300Y419100D03*
D11*
X63500Y155500D03*
X63500Y225500D03*
D10*
X206300Y533400D03*
X276300Y533400D03*
D12*
X127000Y292100D03*
X127000Y317500D03*
D13*
X38100Y584200D03*
X38100Y482600D03*
X38100Y457200D03*
X38100Y355600D03*
X251700Y33000D03*
X281700Y33000D03*
D14*
X266700Y76200D03*
D13*
X353300Y33000D03*
X383300Y33000D03*
D14*
X368300Y76200D03*
D15*
X261112Y762000D03*
X196088Y762000D03*
D16*
X330200Y389382D02*
X330200Y372618D01*
X355600Y372618D02*
X355600Y389382D01*
X381000Y389382D02*
X381000Y372618D01*
D17*
X355600Y556260D03*
D16*
X101600Y389382D02*
X101600Y372618D01*
X127000Y372618D02*
X127000Y389382D01*
X152400Y389382D02*
X152400Y372618D01*
D17*
X127000Y556260D03*
D18*
X355600Y139700D03*
X355600Y241300D03*
D19*
X38100Y800100D03*
X139700Y800100D03*
X38100Y749300D03*
X139700Y749300D03*
D18*
X406400Y139700D03*
X406400Y241300D03*
D20*
X393700Y711200D03*
X393700Y609600D03*
D18*
X254000Y139700D03*
X254000Y241300D03*
X304800Y139700D03*
X304800Y241300D03*
D19*
X317500Y749300D03*
X419100Y749300D03*
D18*
X63500Y609600D03*
X63500Y711200D03*
D20*
X114300Y711200D03*
X114300Y609600D03*
D18*
X203200Y139700D03*
X203200Y241300D03*
X406400Y266700D03*
X406400Y368300D03*
D19*
X177800Y673100D03*
X279400Y673100D03*
X177800Y622300D03*
X279400Y622300D03*
X317500Y800100D03*
X419100Y800100D03*
D18*
X152400Y139700D03*
X152400Y241300D03*
D20*
X254000Y317500D03*
X254000Y292100D03*
X279400Y292100D03*
X177800Y317500D03*
X177800Y292100D03*
X203200Y292100D03*
X330200Y317500D03*
X330200Y292100D03*
X355600Y292100D03*
X50800Y317500D03*
X50800Y292100D03*
X76200Y292100D03*
X330200Y673100D03*
X330200Y647700D03*
X355600Y647700D03*
M02*
